# xmcd CD database file
#
# Track frame offsets:
#	150
#	22590
#	41345
#	58863
#	78972
#	100020
#	119787
#	136857
#	154175
#	180722
#
# Disc length: 2807 seconds
#
# Revision: 0
# Processed by: cddbd v1.5.1PL2 Copyright (c) Steve Scherf et al.
# Submitted via: CDex 1.51
#
DISCID=760af50a
DTITLE=高鈴 - 五月のせいにして
DYEAR=1900
DGENRE=JPop
TTITLE0=すれ違い
TTITLE1=リトルダンス
TTITLE2=太陽
TTITLE3=嘘つき
TTITLE4=猫
TTITLE5=星がきれいなのは
TTITLE6=諦めの恋人
TTITLE7=見上げて
TTITLE8=真夜中の後悔
TTITLE9=溺れる青い鳥
EXTD=
EXTT0=
EXTT1=
EXTT2=
EXTT3=
EXTT4=
EXTT5=
EXTT6=
EXTT7=
EXTT8=
EXTT9=
PLAYORDER=
